<svg width="207" height="50" viewBox="0 0 207 50" fill="none" xmlns="http://www.w3.org/2000/svg">
<path d="M73.4429 20.14H71.7769L68.9909 27.602H68.9629L66.1769 20.14H64.4969L63.6289 29.8H64.9729L65.5889 22.17H65.6309L68.5849 29.884H69.3549L72.3089 22.17H72.3509L72.9809 29.8H74.3249L73.4429 20.14Z" fill="white"/>
<path d="M91.7341 24.984C91.7341 21.89 89.4661 20 86.7501 20C84.0341 20 81.7661 21.89 81.7661 24.984C81.7661 28.078 84.0341 29.968 86.7501 29.968C89.4661 29.968 91.7341 28.078 91.7341 24.984ZM90.3481 24.956C90.3481 27.308 88.7241 28.736 86.7501 28.736C84.7901 28.736 83.1521 27.308 83.1521 24.956C83.1521 22.59 84.7761 21.176 86.7501 21.176C88.7241 21.176 90.3481 22.59 90.3481 24.956Z" fill="white"/>
<path d="M106.898 20.14H105.54V25.726C105.54 26.524 105.526 27.322 105.092 27.896C104.686 28.428 104.07 28.75 103.23 28.75C102.39 28.75 101.76 28.428 101.368 27.896C100.934 27.322 100.92 26.538 100.92 25.726V20.14H99.548V25.852C99.548 27.056 99.66 28.008 100.332 28.792C100.976 29.548 101.942 29.968 103.23 29.968C104.504 29.968 105.47 29.548 106.128 28.792C106.786 28.008 106.898 27.056 106.898 25.852V20.14Z" fill="white"/>
<path d="M123.474 20.14H122.144V25.264C122.144 26.538 122.158 27.728 122.158 27.728L116.684 20.14H115.256V29.8H116.6V24.662C116.6 23.402 116.572 22.1 116.572 22.1L122.144 29.8H123.474V20.14Z" fill="white"/>
<path d="M137.757 20.14H130.953V21.274H133.683V29.8H135.041V21.274H137.757V20.14Z" fill="white"/>
<path d="M151.841 27.056C151.841 25.782 151.001 24.97 149.699 24.704V24.676C150.511 24.424 151.169 23.584 151.169 22.562C151.169 21.554 150.721 20.98 150.133 20.602C149.531 20.21 148.747 20.14 147.837 20.14H145.233V29.8H148.369C149.433 29.8 150.203 29.646 150.805 29.17C151.407 28.694 151.841 28.064 151.841 27.056ZM149.811 22.716C149.811 23.416 149.489 23.752 149.167 23.99C148.845 24.228 148.397 24.284 147.725 24.284H146.591V21.218H147.837C148.467 21.218 148.817 21.288 149.167 21.484C149.503 21.666 149.811 22.03 149.811 22.716ZM150.441 27C150.441 27.616 150.217 28.036 149.741 28.358C149.265 28.68 148.663 28.694 148.047 28.694H146.591V25.32H148.047C148.663 25.32 149.265 25.348 149.741 25.67C150.217 25.992 150.441 26.384 150.441 27Z" fill="white"/>
<path d="M161.108 20.14H159.75V29.8H161.108V20.14Z" fill="white"/>
<path d="M173.33 25.502C174.352 25.306 175.528 24.55 175.528 22.856C175.528 21.974 175.164 21.274 174.59 20.812C174.016 20.364 173.232 20.14 172.266 20.14H169.536V29.8H170.894V25.642H171.93L174.45 29.8H176.088L173.33 25.502ZM174.128 22.884C174.128 23.472 173.946 23.864 173.512 24.186C173.078 24.494 172.56 24.522 171.888 24.522H170.894V21.246H171.888C172.56 21.246 173.078 21.274 173.512 21.596C173.946 21.904 174.128 22.31 174.128 22.884Z" fill="white"/>
<path d="M190.733 27.546C190.103 28.232 189.123 28.722 187.849 28.722C185.777 28.722 184.251 27.224 184.251 24.956C184.251 22.688 185.763 21.19 187.849 21.19C189.193 21.19 190.271 21.89 190.649 22.366L191.223 21.274C190.691 20.756 189.599 20 187.793 20C185.021 20 182.851 21.974 182.851 24.984C182.851 27.994 184.979 29.968 187.793 29.968C189.627 29.968 190.719 29.212 191.321 28.54L190.733 27.546Z" fill="white"/>
<path d="M206.861 20.14H205.503V24.13H200.365V20.14H199.007V29.8H200.365V25.292H205.503V29.8H206.861V20.14Z" fill="white"/>
<path fill-rule="evenodd" clip-rule="evenodd" d="M24.9983 1.1547L4.34766 13.0773V36.9226L24.9983 48.8453L45.6489 36.9226V13.0773L24.9983 1.1547ZM46.6489 12.5L24.9983 0L3.34766 12.5V37.5L24.9983 50L46.6489 37.5V12.5Z" fill="#C59D85"/>
<path d="M31.6797 22.4662C27.4137 22.9775 22.3649 24.7973 17.7124 28.6077C27.7595 19.9637 36.1953 20.8713 39.1632 21.2603C39.2479 21.7358 39.2479 22.773 38.824 22.9892C37.3669 22.4847 35.4503 22.2306 33.2614 22.3335C40.6278 30.2878 32.7388 39.1496 26.0214 39.0667C26.8522 38.3407 26.9077 37.7281 26.9458 37.6846C26.9486 37.6843 26.9513 37.684 26.9541 37.6836C26.9513 37.6807 26.9487 37.6815 26.9458 37.6846C19.5362 38.5458 20.4235 35.6087 14.7451 34.4854C14.7027 34.3124 16.3561 33.7938 16.3561 33.7938C16.3561 33.7938 14.3212 31.6327 7.19922 32.1514C10.5058 28.9531 16.1865 18.1476 16.1865 18.1476C16.1865 18.1476 18.942 21.0001 19.7476 21.0001C21.0193 19.8764 25.7674 9.15796 25.7674 9.15796C25.7674 9.15796 29.4132 16.03 29.6676 16.0731C29.9219 16.1163 32.635 13.8256 32.635 13.8256C32.635 13.8256 35.857 17.7586 37.807 19.012C37.8917 19.0552 36.6199 19.012 36.4504 19.012C35.6874 18.6663 33.3982 16.073 33.3982 16.073C33.3982 16.073 32.8895 15.9866 32.3808 16.5052C32.1265 15.9866 31.6178 15.7272 31.6178 15.7272C31.6178 15.7272 29.922 16.7213 29.4981 17.3696C28.8198 16.3323 26.8698 13.4797 26.8698 13.4797C26.8698 13.4797 25.7675 13.9984 25.3436 14.6034C24.9197 13.9551 24.4958 13.8254 24.4958 13.8254C24.4958 13.8254 21.0196 21.6914 19.9173 22.4694C18.6879 21.3457 17.6281 20.8271 17.6281 20.8271C17.6281 20.8271 16.4411 21.2593 16.2716 21.7779C15.89 21.2161 15.5086 20.9999 15.5086 20.9999C15.5086 20.9999 11.0148 30.249 9.40477 31.2602C13.7262 31.1198 14.1219 31.5437 18.1608 33.2115C18.0501 33.6126 17.3391 33.8192 17.1482 34.1836C21.5573 35.698 21.4961 37.6175 28.2205 36.1623C28.2412 36.1528 28.6591 36.5828 28.0469 37.6412C34.8498 36.3475 38.3585 27.4418 31.6798 22.4654L31.6797 22.4662ZM17.9889 33.1478C17.9906 33.1484 17.9928 33.1472 17.9945 33.1482C18.0002 33.152 17.9966 33.1508 17.9889 33.1478Z" fill="#C59D85"/>
</svg>
